<svg xmlns="http://www.w3.org/2000/svg" width="1000" height="640" viewBox="0 0 1000 640" font-family="Helvetica, Arial, sans-serif" font-size="11">
<defs><marker id="a" viewBox="0 0 10 10" refX="10" refY="5" markerWidth="8" markerHeight="8" orient="auto-start-reverse"><path d="M0,0 L10,5 L0,10 z" fill="#c33"/></marker><marker id="b" viewBox="0 0 10 10" refX="10" refY="5" markerWidth="8" markerHeight="8" orient="auto-start-reverse"><path d="M0,0 L10,5 L0,10 z" fill="#357"/></marker><pattern id="wood" width="6" height="6" patternUnits="userSpaceOnUse" patternTransform="rotate(45)"><line x1="0" y1="0" x2="0" y2="6" stroke="#b58a4a" stroke-width="1"/></pattern><pattern id="steel" width="5" height="5" patternUnits="userSpaceOnUse" patternTransform="rotate(-45)"><line x1="0" y1="0" x2="0" y2="5" stroke="#667" stroke-width="0.8"/></pattern><pattern id="print" width="4" height="4" patternUnits="userSpaceOnUse"><circle cx="2" cy="2" r="0.7" fill="#3a7"/></pattern></defs>
<rect width="1000" height="640" fill="#fff"/>
<text x="12" y="22" font-size="15" font-weight="bold">2. Plan view (from above). Nail 0 and the tower are at 12 o'clock.</text>
<rect x="163.0" y="103.0" width="434.0" height="434.0" fill="url(#wood)" stroke="#222" stroke-width="1" />
<text x="166.7" y="111.7" font-size="10" text-anchor="start" fill="#222" font-weight="normal">base 700 x 700</text>
<circle cx="380.0" cy="320.0" r="186.0" fill="#f6ecd8" stroke="#222" stroke-width="1.5"/>
<circle cx="380.0" cy="320.0" r="179.8" fill="none" stroke="#222" stroke-width="1" stroke-dasharray="2,3"/>
<line x1="380.0" y1="141.4" x2="380.0" y2="139.0" stroke="#333" stroke-width="0.7"/>
<line x1="383.9" y1="141.5" x2="383.9" y2="139.0" stroke="#333" stroke-width="0.7"/>
<line x1="387.8" y1="141.6" x2="387.9" y2="139.1" stroke="#333" stroke-width="0.7"/>
<line x1="391.7" y1="141.8" x2="391.8" y2="139.3" stroke="#333" stroke-width="0.7"/>
<line x1="395.6" y1="142.1" x2="395.8" y2="139.6" stroke="#333" stroke-width="0.7"/>
<line x1="399.4" y1="142.5" x2="399.7" y2="140.0" stroke="#333" stroke-width="0.7"/>
<line x1="403.3" y1="143.0" x2="403.6" y2="140.5" stroke="#333" stroke-width="0.7"/>
<line x1="407.2" y1="143.5" x2="407.5" y2="141.1" stroke="#333" stroke-width="0.7"/>
<line x1="411.0" y1="144.2" x2="411.4" y2="141.7" stroke="#333" stroke-width="0.7"/>
<line x1="414.8" y1="144.9" x2="415.3" y2="142.4" stroke="#333" stroke-width="0.7"/>
<line x1="418.6" y1="145.7" x2="419.2" y2="143.3" stroke="#333" stroke-width="0.7"/>
<line x1="422.4" y1="146.6" x2="423.0" y2="144.1" stroke="#333" stroke-width="0.7"/>
<line x1="426.2" y1="147.5" x2="426.9" y2="145.1" stroke="#333" stroke-width="0.7"/>
<line x1="430.0" y1="148.6" x2="430.7" y2="146.2" stroke="#333" stroke-width="0.7"/>
<line x1="433.7" y1="149.7" x2="434.4" y2="147.3" stroke="#333" stroke-width="0.7"/>
<line x1="437.4" y1="150.9" x2="438.2" y2="148.6" stroke="#333" stroke-width="0.7"/>
<line x1="441.1" y1="152.2" x2="441.9" y2="149.9" stroke="#333" stroke-width="0.7"/>
<line x1="444.7" y1="153.6" x2="445.6" y2="151.3" stroke="#333" stroke-width="0.7"/>
<line x1="448.3" y1="155.0" x2="449.3" y2="152.7" stroke="#333" stroke-width="0.7"/>
<line x1="451.9" y1="156.6" x2="452.9" y2="154.3" stroke="#333" stroke-width="0.7"/>
<line x1="455.5" y1="158.2" x2="456.5" y2="155.9" stroke="#333" stroke-width="0.7"/>
<line x1="459.0" y1="159.9" x2="460.1" y2="157.6" stroke="#333" stroke-width="0.7"/>
<line x1="462.4" y1="161.6" x2="463.6" y2="159.4" stroke="#333" stroke-width="0.7"/>
<line x1="465.9" y1="163.5" x2="467.1" y2="161.3" stroke="#333" stroke-width="0.7"/>
<line x1="469.3" y1="165.4" x2="470.5" y2="163.2" stroke="#333" stroke-width="0.7"/>
<line x1="472.6" y1="167.3" x2="473.9" y2="165.2" stroke="#333" stroke-width="0.7"/>
<line x1="475.9" y1="169.4" x2="477.3" y2="167.3" stroke="#333" stroke-width="0.7"/>
<line x1="479.2" y1="171.5" x2="480.6" y2="169.5" stroke="#333" stroke-width="0.7"/>
<line x1="482.4" y1="173.7" x2="483.8" y2="171.7" stroke="#333" stroke-width="0.7"/>
<line x1="485.6" y1="176.0" x2="487.1" y2="174.0" stroke="#333" stroke-width="0.7"/>
<line x1="488.7" y1="178.3" x2="490.2" y2="176.4" stroke="#333" stroke-width="0.7"/>
<line x1="491.8" y1="180.7" x2="493.3" y2="178.8" stroke="#333" stroke-width="0.7"/>
<line x1="494.8" y1="183.2" x2="496.4" y2="181.3" stroke="#333" stroke-width="0.7"/>
<line x1="497.7" y1="185.8" x2="499.4" y2="183.9" stroke="#333" stroke-width="0.7"/>
<line x1="500.6" y1="188.4" x2="502.3" y2="186.5" stroke="#333" stroke-width="0.7"/>
<line x1="503.5" y1="191.0" x2="505.2" y2="189.2" stroke="#333" stroke-width="0.7"/>
<line x1="506.3" y1="193.7" x2="508.0" y2="192.0" stroke="#333" stroke-width="0.7"/>
<line x1="509.0" y1="196.5" x2="510.8" y2="194.8" stroke="#333" stroke-width="0.7"/>
<line x1="511.6" y1="199.4" x2="513.5" y2="197.7" stroke="#333" stroke-width="0.7"/>
<line x1="514.2" y1="202.3" x2="516.1" y2="200.6" stroke="#333" stroke-width="0.7"/>
<line x1="516.8" y1="205.2" x2="518.7" y2="203.6" stroke="#333" stroke-width="0.7"/>
<line x1="519.3" y1="208.2" x2="521.2" y2="206.7" stroke="#333" stroke-width="0.7"/>
<line x1="521.7" y1="211.3" x2="523.6" y2="209.8" stroke="#333" stroke-width="0.7"/>
<line x1="524.0" y1="214.4" x2="526.0" y2="212.9" stroke="#333" stroke-width="0.7"/>
<line x1="526.3" y1="217.6" x2="528.3" y2="216.2" stroke="#333" stroke-width="0.7"/>
<line x1="528.5" y1="220.8" x2="530.5" y2="219.4" stroke="#333" stroke-width="0.7"/>
<line x1="530.6" y1="224.1" x2="532.7" y2="222.7" stroke="#333" stroke-width="0.7"/>
<line x1="532.7" y1="227.4" x2="534.8" y2="226.1" stroke="#333" stroke-width="0.7"/>
<line x1="534.6" y1="230.7" x2="536.8" y2="229.5" stroke="#333" stroke-width="0.7"/>
<line x1="536.5" y1="234.1" x2="538.7" y2="232.9" stroke="#333" stroke-width="0.7"/>
<line x1="538.4" y1="237.6" x2="540.6" y2="236.4" stroke="#333" stroke-width="0.7"/>
<line x1="540.1" y1="241.0" x2="542.4" y2="239.9" stroke="#333" stroke-width="0.7"/>
<line x1="541.8" y1="244.5" x2="544.1" y2="243.5" stroke="#333" stroke-width="0.7"/>
<line x1="543.4" y1="248.1" x2="545.7" y2="247.1" stroke="#333" stroke-width="0.7"/>
<line x1="545.0" y1="251.7" x2="547.3" y2="250.7" stroke="#333" stroke-width="0.7"/>
<line x1="546.4" y1="255.3" x2="548.7" y2="254.4" stroke="#333" stroke-width="0.7"/>
<line x1="547.8" y1="258.9" x2="550.1" y2="258.1" stroke="#333" stroke-width="0.7"/>
<line x1="549.1" y1="262.6" x2="551.4" y2="261.8" stroke="#333" stroke-width="0.7"/>
<line x1="550.3" y1="266.3" x2="552.7" y2="265.6" stroke="#333" stroke-width="0.7"/>
<line x1="551.4" y1="270.0" x2="553.8" y2="269.3" stroke="#333" stroke-width="0.7"/>
<line x1="552.5" y1="273.8" x2="554.9" y2="273.1" stroke="#333" stroke-width="0.7"/>
<line x1="553.4" y1="277.6" x2="555.9" y2="277.0" stroke="#333" stroke-width="0.7"/>
<line x1="554.3" y1="281.4" x2="556.7" y2="280.8" stroke="#333" stroke-width="0.7"/>
<line x1="555.1" y1="285.2" x2="557.6" y2="284.7" stroke="#333" stroke-width="0.7"/>
<line x1="555.8" y1="289.0" x2="558.3" y2="288.6" stroke="#333" stroke-width="0.7"/>
<line x1="556.5" y1="292.8" x2="558.9" y2="292.5" stroke="#333" stroke-width="0.7"/>
<line x1="557.0" y1="296.7" x2="559.5" y2="296.4" stroke="#333" stroke-width="0.7"/>
<line x1="557.5" y1="300.6" x2="560.0" y2="300.3" stroke="#333" stroke-width="0.7"/>
<line x1="557.9" y1="304.4" x2="560.4" y2="304.2" stroke="#333" stroke-width="0.7"/>
<line x1="558.2" y1="308.3" x2="560.7" y2="308.2" stroke="#333" stroke-width="0.7"/>
<line x1="558.4" y1="312.2" x2="560.9" y2="312.1" stroke="#333" stroke-width="0.7"/>
<line x1="558.5" y1="316.1" x2="561.0" y2="316.1" stroke="#333" stroke-width="0.7"/>
<line x1="558.6" y1="320.0" x2="561.0" y2="320.0" stroke="#333" stroke-width="0.7"/>
<line x1="558.5" y1="323.9" x2="561.0" y2="323.9" stroke="#333" stroke-width="0.7"/>
<line x1="558.4" y1="327.8" x2="560.9" y2="327.9" stroke="#333" stroke-width="0.7"/>
<line x1="558.2" y1="331.7" x2="560.7" y2="331.8" stroke="#333" stroke-width="0.7"/>
<line x1="557.9" y1="335.6" x2="560.4" y2="335.8" stroke="#333" stroke-width="0.7"/>
<line x1="557.5" y1="339.4" x2="560.0" y2="339.7" stroke="#333" stroke-width="0.7"/>
<line x1="557.0" y1="343.3" x2="559.5" y2="343.6" stroke="#333" stroke-width="0.7"/>
<line x1="556.5" y1="347.2" x2="558.9" y2="347.5" stroke="#333" stroke-width="0.7"/>
<line x1="555.8" y1="351.0" x2="558.3" y2="351.4" stroke="#333" stroke-width="0.7"/>
<line x1="555.1" y1="354.8" x2="557.6" y2="355.3" stroke="#333" stroke-width="0.7"/>
<line x1="554.3" y1="358.6" x2="556.7" y2="359.2" stroke="#333" stroke-width="0.7"/>
<line x1="553.4" y1="362.4" x2="555.9" y2="363.0" stroke="#333" stroke-width="0.7"/>
<line x1="552.5" y1="366.2" x2="554.9" y2="366.9" stroke="#333" stroke-width="0.7"/>
<line x1="551.4" y1="370.0" x2="553.8" y2="370.7" stroke="#333" stroke-width="0.7"/>
<line x1="550.3" y1="373.7" x2="552.7" y2="374.4" stroke="#333" stroke-width="0.7"/>
<line x1="549.1" y1="377.4" x2="551.4" y2="378.2" stroke="#333" stroke-width="0.7"/>
<line x1="547.8" y1="381.1" x2="550.1" y2="381.9" stroke="#333" stroke-width="0.7"/>
<line x1="546.4" y1="384.7" x2="548.7" y2="385.6" stroke="#333" stroke-width="0.7"/>
<line x1="545.0" y1="388.3" x2="547.3" y2="389.3" stroke="#333" stroke-width="0.7"/>
<line x1="543.4" y1="391.9" x2="545.7" y2="392.9" stroke="#333" stroke-width="0.7"/>
<line x1="541.8" y1="395.5" x2="544.1" y2="396.5" stroke="#333" stroke-width="0.7"/>
<line x1="540.1" y1="399.0" x2="542.4" y2="400.1" stroke="#333" stroke-width="0.7"/>
<line x1="538.4" y1="402.4" x2="540.6" y2="403.6" stroke="#333" stroke-width="0.7"/>
<line x1="536.5" y1="405.9" x2="538.7" y2="407.1" stroke="#333" stroke-width="0.7"/>
<line x1="534.6" y1="409.3" x2="536.8" y2="410.5" stroke="#333" stroke-width="0.7"/>
<line x1="532.7" y1="412.6" x2="534.8" y2="413.9" stroke="#333" stroke-width="0.7"/>
<line x1="530.6" y1="415.9" x2="532.7" y2="417.3" stroke="#333" stroke-width="0.7"/>
<line x1="528.5" y1="419.2" x2="530.5" y2="420.6" stroke="#333" stroke-width="0.7"/>
<line x1="526.3" y1="422.4" x2="528.3" y2="423.8" stroke="#333" stroke-width="0.7"/>
<line x1="524.0" y1="425.6" x2="526.0" y2="427.1" stroke="#333" stroke-width="0.7"/>
<line x1="521.7" y1="428.7" x2="523.6" y2="430.2" stroke="#333" stroke-width="0.7"/>
<line x1="519.3" y1="431.8" x2="521.2" y2="433.3" stroke="#333" stroke-width="0.7"/>
<line x1="516.8" y1="434.8" x2="518.7" y2="436.4" stroke="#333" stroke-width="0.7"/>
<line x1="514.2" y1="437.7" x2="516.1" y2="439.4" stroke="#333" stroke-width="0.7"/>
<line x1="511.6" y1="440.6" x2="513.5" y2="442.3" stroke="#333" stroke-width="0.7"/>
<line x1="509.0" y1="443.5" x2="510.8" y2="445.2" stroke="#333" stroke-width="0.7"/>
<line x1="506.3" y1="446.3" x2="508.0" y2="448.0" stroke="#333" stroke-width="0.7"/>
<line x1="503.5" y1="449.0" x2="505.2" y2="450.8" stroke="#333" stroke-width="0.7"/>
<line x1="500.6" y1="451.6" x2="502.3" y2="453.5" stroke="#333" stroke-width="0.7"/>
<line x1="497.7" y1="454.2" x2="499.4" y2="456.1" stroke="#333" stroke-width="0.7"/>
<line x1="494.8" y1="456.8" x2="496.4" y2="458.7" stroke="#333" stroke-width="0.7"/>
<line x1="491.8" y1="459.3" x2="493.3" y2="461.2" stroke="#333" stroke-width="0.7"/>
<line x1="488.7" y1="461.7" x2="490.2" y2="463.6" stroke="#333" stroke-width="0.7"/>
<line x1="485.6" y1="464.0" x2="487.1" y2="466.0" stroke="#333" stroke-width="0.7"/>
<line x1="482.4" y1="466.3" x2="483.8" y2="468.3" stroke="#333" stroke-width="0.7"/>
<line x1="479.2" y1="468.5" x2="480.6" y2="470.5" stroke="#333" stroke-width="0.7"/>
<line x1="475.9" y1="470.6" x2="477.3" y2="472.7" stroke="#333" stroke-width="0.7"/>
<line x1="472.6" y1="472.7" x2="473.9" y2="474.8" stroke="#333" stroke-width="0.7"/>
<line x1="469.3" y1="474.6" x2="470.5" y2="476.8" stroke="#333" stroke-width="0.7"/>
<line x1="465.9" y1="476.5" x2="467.1" y2="478.7" stroke="#333" stroke-width="0.7"/>
<line x1="462.4" y1="478.4" x2="463.6" y2="480.6" stroke="#333" stroke-width="0.7"/>
<line x1="459.0" y1="480.1" x2="460.1" y2="482.4" stroke="#333" stroke-width="0.7"/>
<line x1="455.5" y1="481.8" x2="456.5" y2="484.1" stroke="#333" stroke-width="0.7"/>
<line x1="451.9" y1="483.4" x2="452.9" y2="485.7" stroke="#333" stroke-width="0.7"/>
<line x1="448.3" y1="485.0" x2="449.3" y2="487.3" stroke="#333" stroke-width="0.7"/>
<line x1="444.7" y1="486.4" x2="445.6" y2="488.7" stroke="#333" stroke-width="0.7"/>
<line x1="441.1" y1="487.8" x2="441.9" y2="490.1" stroke="#333" stroke-width="0.7"/>
<line x1="437.4" y1="489.1" x2="438.2" y2="491.4" stroke="#333" stroke-width="0.7"/>
<line x1="433.7" y1="490.3" x2="434.4" y2="492.7" stroke="#333" stroke-width="0.7"/>
<line x1="430.0" y1="491.4" x2="430.7" y2="493.8" stroke="#333" stroke-width="0.7"/>
<line x1="426.2" y1="492.5" x2="426.9" y2="494.9" stroke="#333" stroke-width="0.7"/>
<line x1="422.4" y1="493.4" x2="423.0" y2="495.9" stroke="#333" stroke-width="0.7"/>
<line x1="418.6" y1="494.3" x2="419.2" y2="496.7" stroke="#333" stroke-width="0.7"/>
<line x1="414.8" y1="495.1" x2="415.3" y2="497.6" stroke="#333" stroke-width="0.7"/>
<line x1="411.0" y1="495.8" x2="411.4" y2="498.3" stroke="#333" stroke-width="0.7"/>
<line x1="407.2" y1="496.5" x2="407.5" y2="498.9" stroke="#333" stroke-width="0.7"/>
<line x1="403.3" y1="497.0" x2="403.6" y2="499.5" stroke="#333" stroke-width="0.7"/>
<line x1="399.4" y1="497.5" x2="399.7" y2="500.0" stroke="#333" stroke-width="0.7"/>
<line x1="395.6" y1="497.9" x2="395.8" y2="500.4" stroke="#333" stroke-width="0.7"/>
<line x1="391.7" y1="498.2" x2="391.8" y2="500.7" stroke="#333" stroke-width="0.7"/>
<line x1="387.8" y1="498.4" x2="387.9" y2="500.9" stroke="#333" stroke-width="0.7"/>
<line x1="383.9" y1="498.5" x2="383.9" y2="501.0" stroke="#333" stroke-width="0.7"/>
<line x1="380.0" y1="498.6" x2="380.0" y2="501.0" stroke="#333" stroke-width="0.7"/>
<line x1="376.1" y1="498.5" x2="376.1" y2="501.0" stroke="#333" stroke-width="0.7"/>
<line x1="372.2" y1="498.4" x2="372.1" y2="500.9" stroke="#333" stroke-width="0.7"/>
<line x1="368.3" y1="498.2" x2="368.2" y2="500.7" stroke="#333" stroke-width="0.7"/>
<line x1="364.4" y1="497.9" x2="364.2" y2="500.4" stroke="#333" stroke-width="0.7"/>
<line x1="360.6" y1="497.5" x2="360.3" y2="500.0" stroke="#333" stroke-width="0.7"/>
<line x1="356.7" y1="497.0" x2="356.4" y2="499.5" stroke="#333" stroke-width="0.7"/>
<line x1="352.8" y1="496.5" x2="352.5" y2="498.9" stroke="#333" stroke-width="0.7"/>
<line x1="349.0" y1="495.8" x2="348.6" y2="498.3" stroke="#333" stroke-width="0.7"/>
<line x1="345.2" y1="495.1" x2="344.7" y2="497.6" stroke="#333" stroke-width="0.7"/>
<line x1="341.4" y1="494.3" x2="340.8" y2="496.7" stroke="#333" stroke-width="0.7"/>
<line x1="337.6" y1="493.4" x2="337.0" y2="495.9" stroke="#333" stroke-width="0.7"/>
<line x1="333.8" y1="492.5" x2="333.1" y2="494.9" stroke="#333" stroke-width="0.7"/>
<line x1="330.0" y1="491.4" x2="329.3" y2="493.8" stroke="#333" stroke-width="0.7"/>
<line x1="326.3" y1="490.3" x2="325.6" y2="492.7" stroke="#333" stroke-width="0.7"/>
<line x1="322.6" y1="489.1" x2="321.8" y2="491.4" stroke="#333" stroke-width="0.7"/>
<line x1="318.9" y1="487.8" x2="318.1" y2="490.1" stroke="#333" stroke-width="0.7"/>
<line x1="315.3" y1="486.4" x2="314.4" y2="488.7" stroke="#333" stroke-width="0.7"/>
<line x1="311.7" y1="485.0" x2="310.7" y2="487.3" stroke="#333" stroke-width="0.7"/>
<line x1="308.1" y1="483.4" x2="307.1" y2="485.7" stroke="#333" stroke-width="0.7"/>
<line x1="304.5" y1="481.8" x2="303.5" y2="484.1" stroke="#333" stroke-width="0.7"/>
<line x1="301.0" y1="480.1" x2="299.9" y2="482.4" stroke="#333" stroke-width="0.7"/>
<line x1="297.6" y1="478.4" x2="296.4" y2="480.6" stroke="#333" stroke-width="0.7"/>
<line x1="294.1" y1="476.5" x2="292.9" y2="478.7" stroke="#333" stroke-width="0.7"/>
<line x1="290.7" y1="474.6" x2="289.5" y2="476.8" stroke="#333" stroke-width="0.7"/>
<line x1="287.4" y1="472.7" x2="286.1" y2="474.8" stroke="#333" stroke-width="0.7"/>
<line x1="284.1" y1="470.6" x2="282.7" y2="472.7" stroke="#333" stroke-width="0.7"/>
<line x1="280.8" y1="468.5" x2="279.4" y2="470.5" stroke="#333" stroke-width="0.7"/>
<line x1="277.6" y1="466.3" x2="276.2" y2="468.3" stroke="#333" stroke-width="0.7"/>
<line x1="274.4" y1="464.0" x2="272.9" y2="466.0" stroke="#333" stroke-width="0.7"/>
<line x1="271.3" y1="461.7" x2="269.8" y2="463.6" stroke="#333" stroke-width="0.7"/>
<line x1="268.2" y1="459.3" x2="266.7" y2="461.2" stroke="#333" stroke-width="0.7"/>
<line x1="265.2" y1="456.8" x2="263.6" y2="458.7" stroke="#333" stroke-width="0.7"/>
<line x1="262.3" y1="454.2" x2="260.6" y2="456.1" stroke="#333" stroke-width="0.7"/>
<line x1="259.4" y1="451.6" x2="257.7" y2="453.5" stroke="#333" stroke-width="0.7"/>
<line x1="256.5" y1="449.0" x2="254.8" y2="450.8" stroke="#333" stroke-width="0.7"/>
<line x1="253.7" y1="446.3" x2="252.0" y2="448.0" stroke="#333" stroke-width="0.7"/>
<line x1="251.0" y1="443.5" x2="249.2" y2="445.2" stroke="#333" stroke-width="0.7"/>
<line x1="248.4" y1="440.6" x2="246.5" y2="442.3" stroke="#333" stroke-width="0.7"/>
<line x1="245.8" y1="437.7" x2="243.9" y2="439.4" stroke="#333" stroke-width="0.7"/>
<line x1="243.2" y1="434.8" x2="241.3" y2="436.4" stroke="#333" stroke-width="0.7"/>
<line x1="240.7" y1="431.8" x2="238.8" y2="433.3" stroke="#333" stroke-width="0.7"/>
<line x1="238.3" y1="428.7" x2="236.4" y2="430.2" stroke="#333" stroke-width="0.7"/>
<line x1="236.0" y1="425.6" x2="234.0" y2="427.1" stroke="#333" stroke-width="0.7"/>
<line x1="233.7" y1="422.4" x2="231.7" y2="423.8" stroke="#333" stroke-width="0.7"/>
<line x1="231.5" y1="419.2" x2="229.5" y2="420.6" stroke="#333" stroke-width="0.7"/>
<line x1="229.4" y1="415.9" x2="227.3" y2="417.3" stroke="#333" stroke-width="0.7"/>
<line x1="227.3" y1="412.6" x2="225.2" y2="413.9" stroke="#333" stroke-width="0.7"/>
<line x1="225.4" y1="409.3" x2="223.2" y2="410.5" stroke="#333" stroke-width="0.7"/>
<line x1="223.5" y1="405.9" x2="221.3" y2="407.1" stroke="#333" stroke-width="0.7"/>
<line x1="221.6" y1="402.4" x2="219.4" y2="403.6" stroke="#333" stroke-width="0.7"/>
<line x1="219.9" y1="399.0" x2="217.6" y2="400.1" stroke="#333" stroke-width="0.7"/>
<line x1="218.2" y1="395.5" x2="215.9" y2="396.5" stroke="#333" stroke-width="0.7"/>
<line x1="216.6" y1="391.9" x2="214.3" y2="392.9" stroke="#333" stroke-width="0.7"/>
<line x1="215.0" y1="388.3" x2="212.7" y2="389.3" stroke="#333" stroke-width="0.7"/>
<line x1="213.6" y1="384.7" x2="211.3" y2="385.6" stroke="#333" stroke-width="0.7"/>
<line x1="212.2" y1="381.1" x2="209.9" y2="381.9" stroke="#333" stroke-width="0.7"/>
<line x1="210.9" y1="377.4" x2="208.6" y2="378.2" stroke="#333" stroke-width="0.7"/>
<line x1="209.7" y1="373.7" x2="207.3" y2="374.4" stroke="#333" stroke-width="0.7"/>
<line x1="208.6" y1="370.0" x2="206.2" y2="370.7" stroke="#333" stroke-width="0.7"/>
<line x1="207.5" y1="366.2" x2="205.1" y2="366.9" stroke="#333" stroke-width="0.7"/>
<line x1="206.6" y1="362.4" x2="204.1" y2="363.0" stroke="#333" stroke-width="0.7"/>
<line x1="205.7" y1="358.6" x2="203.3" y2="359.2" stroke="#333" stroke-width="0.7"/>
<line x1="204.9" y1="354.8" x2="202.4" y2="355.3" stroke="#333" stroke-width="0.7"/>
<line x1="204.2" y1="351.0" x2="201.7" y2="351.4" stroke="#333" stroke-width="0.7"/>
<line x1="203.5" y1="347.2" x2="201.1" y2="347.5" stroke="#333" stroke-width="0.7"/>
<line x1="203.0" y1="343.3" x2="200.5" y2="343.6" stroke="#333" stroke-width="0.7"/>
<line x1="202.5" y1="339.4" x2="200.0" y2="339.7" stroke="#333" stroke-width="0.7"/>
<line x1="202.1" y1="335.6" x2="199.6" y2="335.8" stroke="#333" stroke-width="0.7"/>
<line x1="201.8" y1="331.7" x2="199.3" y2="331.8" stroke="#333" stroke-width="0.7"/>
<line x1="201.6" y1="327.8" x2="199.1" y2="327.9" stroke="#333" stroke-width="0.7"/>
<line x1="201.5" y1="323.9" x2="199.0" y2="323.9" stroke="#333" stroke-width="0.7"/>
<line x1="201.4" y1="320.0" x2="199.0" y2="320.0" stroke="#333" stroke-width="0.7"/>
<line x1="201.5" y1="316.1" x2="199.0" y2="316.1" stroke="#333" stroke-width="0.7"/>
<line x1="201.6" y1="312.2" x2="199.1" y2="312.1" stroke="#333" stroke-width="0.7"/>
<line x1="201.8" y1="308.3" x2="199.3" y2="308.2" stroke="#333" stroke-width="0.7"/>
<line x1="202.1" y1="304.4" x2="199.6" y2="304.2" stroke="#333" stroke-width="0.7"/>
<line x1="202.5" y1="300.6" x2="200.0" y2="300.3" stroke="#333" stroke-width="0.7"/>
<line x1="203.0" y1="296.7" x2="200.5" y2="296.4" stroke="#333" stroke-width="0.7"/>
<line x1="203.5" y1="292.8" x2="201.1" y2="292.5" stroke="#333" stroke-width="0.7"/>
<line x1="204.2" y1="289.0" x2="201.7" y2="288.6" stroke="#333" stroke-width="0.7"/>
<line x1="204.9" y1="285.2" x2="202.4" y2="284.7" stroke="#333" stroke-width="0.7"/>
<line x1="205.7" y1="281.4" x2="203.3" y2="280.8" stroke="#333" stroke-width="0.7"/>
<line x1="206.6" y1="277.6" x2="204.1" y2="277.0" stroke="#333" stroke-width="0.7"/>
<line x1="207.5" y1="273.8" x2="205.1" y2="273.1" stroke="#333" stroke-width="0.7"/>
<line x1="208.6" y1="270.0" x2="206.2" y2="269.3" stroke="#333" stroke-width="0.7"/>
<line x1="209.7" y1="266.3" x2="207.3" y2="265.6" stroke="#333" stroke-width="0.7"/>
<line x1="210.9" y1="262.6" x2="208.6" y2="261.8" stroke="#333" stroke-width="0.7"/>
<line x1="212.2" y1="258.9" x2="209.9" y2="258.1" stroke="#333" stroke-width="0.7"/>
<line x1="213.6" y1="255.3" x2="211.3" y2="254.4" stroke="#333" stroke-width="0.7"/>
<line x1="215.0" y1="251.7" x2="212.7" y2="250.7" stroke="#333" stroke-width="0.7"/>
<line x1="216.6" y1="248.1" x2="214.3" y2="247.1" stroke="#333" stroke-width="0.7"/>
<line x1="218.2" y1="244.5" x2="215.9" y2="243.5" stroke="#333" stroke-width="0.7"/>
<line x1="219.9" y1="241.0" x2="217.6" y2="239.9" stroke="#333" stroke-width="0.7"/>
<line x1="221.6" y1="237.6" x2="219.4" y2="236.4" stroke="#333" stroke-width="0.7"/>
<line x1="223.5" y1="234.1" x2="221.3" y2="232.9" stroke="#333" stroke-width="0.7"/>
<line x1="225.4" y1="230.7" x2="223.2" y2="229.5" stroke="#333" stroke-width="0.7"/>
<line x1="227.3" y1="227.4" x2="225.2" y2="226.1" stroke="#333" stroke-width="0.7"/>
<line x1="229.4" y1="224.1" x2="227.3" y2="222.7" stroke="#333" stroke-width="0.7"/>
<line x1="231.5" y1="220.8" x2="229.5" y2="219.4" stroke="#333" stroke-width="0.7"/>
<line x1="233.7" y1="217.6" x2="231.7" y2="216.2" stroke="#333" stroke-width="0.7"/>
<line x1="236.0" y1="214.4" x2="234.0" y2="212.9" stroke="#333" stroke-width="0.7"/>
<line x1="238.3" y1="211.3" x2="236.4" y2="209.8" stroke="#333" stroke-width="0.7"/>
<line x1="240.7" y1="208.2" x2="238.8" y2="206.7" stroke="#333" stroke-width="0.7"/>
<line x1="243.2" y1="205.2" x2="241.3" y2="203.6" stroke="#333" stroke-width="0.7"/>
<line x1="245.8" y1="202.3" x2="243.9" y2="200.6" stroke="#333" stroke-width="0.7"/>
<line x1="248.4" y1="199.4" x2="246.5" y2="197.7" stroke="#333" stroke-width="0.7"/>
<line x1="251.0" y1="196.5" x2="249.2" y2="194.8" stroke="#333" stroke-width="0.7"/>
<line x1="253.7" y1="193.7" x2="252.0" y2="192.0" stroke="#333" stroke-width="0.7"/>
<line x1="256.5" y1="191.0" x2="254.8" y2="189.2" stroke="#333" stroke-width="0.7"/>
<line x1="259.4" y1="188.4" x2="257.7" y2="186.5" stroke="#333" stroke-width="0.7"/>
<line x1="262.3" y1="185.8" x2="260.6" y2="183.9" stroke="#333" stroke-width="0.7"/>
<line x1="265.2" y1="183.2" x2="263.6" y2="181.3" stroke="#333" stroke-width="0.7"/>
<line x1="268.2" y1="180.7" x2="266.7" y2="178.8" stroke="#333" stroke-width="0.7"/>
<line x1="271.3" y1="178.3" x2="269.8" y2="176.4" stroke="#333" stroke-width="0.7"/>
<line x1="274.4" y1="176.0" x2="272.9" y2="174.0" stroke="#333" stroke-width="0.7"/>
<line x1="277.6" y1="173.7" x2="276.2" y2="171.7" stroke="#333" stroke-width="0.7"/>
<line x1="280.8" y1="171.5" x2="279.4" y2="169.5" stroke="#333" stroke-width="0.7"/>
<line x1="284.1" y1="169.4" x2="282.7" y2="167.3" stroke="#333" stroke-width="0.7"/>
<line x1="287.4" y1="167.3" x2="286.1" y2="165.2" stroke="#333" stroke-width="0.7"/>
<line x1="290.7" y1="165.4" x2="289.5" y2="163.2" stroke="#333" stroke-width="0.7"/>
<line x1="294.1" y1="163.5" x2="292.9" y2="161.3" stroke="#333" stroke-width="0.7"/>
<line x1="297.6" y1="161.6" x2="296.4" y2="159.4" stroke="#333" stroke-width="0.7"/>
<line x1="301.0" y1="159.9" x2="299.9" y2="157.6" stroke="#333" stroke-width="0.7"/>
<line x1="304.5" y1="158.2" x2="303.5" y2="155.9" stroke="#333" stroke-width="0.7"/>
<line x1="308.1" y1="156.6" x2="307.1" y2="154.3" stroke="#333" stroke-width="0.7"/>
<line x1="311.7" y1="155.0" x2="310.7" y2="152.7" stroke="#333" stroke-width="0.7"/>
<line x1="315.3" y1="153.6" x2="314.4" y2="151.3" stroke="#333" stroke-width="0.7"/>
<line x1="318.9" y1="152.2" x2="318.1" y2="149.9" stroke="#333" stroke-width="0.7"/>
<line x1="322.6" y1="150.9" x2="321.8" y2="148.6" stroke="#333" stroke-width="0.7"/>
<line x1="326.3" y1="149.7" x2="325.6" y2="147.3" stroke="#333" stroke-width="0.7"/>
<line x1="330.0" y1="148.6" x2="329.3" y2="146.2" stroke="#333" stroke-width="0.7"/>
<line x1="333.8" y1="147.5" x2="333.1" y2="145.1" stroke="#333" stroke-width="0.7"/>
<line x1="337.6" y1="146.6" x2="337.0" y2="144.1" stroke="#333" stroke-width="0.7"/>
<line x1="341.4" y1="145.7" x2="340.8" y2="143.3" stroke="#333" stroke-width="0.7"/>
<line x1="345.2" y1="144.9" x2="344.7" y2="142.4" stroke="#333" stroke-width="0.7"/>
<line x1="349.0" y1="144.2" x2="348.6" y2="141.7" stroke="#333" stroke-width="0.7"/>
<line x1="352.8" y1="143.5" x2="352.5" y2="141.1" stroke="#333" stroke-width="0.7"/>
<line x1="356.7" y1="143.0" x2="356.4" y2="140.5" stroke="#333" stroke-width="0.7"/>
<line x1="360.6" y1="142.5" x2="360.3" y2="140.0" stroke="#333" stroke-width="0.7"/>
<line x1="364.4" y1="142.1" x2="364.2" y2="139.6" stroke="#333" stroke-width="0.7"/>
<line x1="368.3" y1="141.8" x2="368.2" y2="139.3" stroke="#333" stroke-width="0.7"/>
<line x1="372.2" y1="141.6" x2="372.1" y2="139.1" stroke="#333" stroke-width="0.7"/>
<line x1="376.1" y1="141.5" x2="376.1" y2="139.0" stroke="#333" stroke-width="0.7"/>
<text x="260.3" y="190.4" font-size="10" text-anchor="start" fill="#222" font-weight="normal">288 nails, pitch 6.33 mm</text>
<circle cx="296.3" cy="465.0" r="6.8" fill="none" stroke="#a60" stroke-width="1.5" stroke-dasharray="3,2"/>
<circle cx="463.7" cy="465.0" r="6.8" fill="none" stroke="#a60" stroke-width="1.5" stroke-dasharray="3,2"/>
<circle cx="380.0" cy="152.6" r="6.8" fill="none" stroke="#a60" stroke-width="1.5" stroke-dasharray="3,2"/>
<text x="166.7" y="532.0" font-size="10" text-anchor="start" fill="#222" font-weight="normal">dashed = under the platter: 3x rim rollers (608 wheels) at R 270, home switch, motor, belt</text>
<circle cx="380.0" cy="320.0" r="14.2" fill="#dd8" stroke="#886" stroke-width="1" stroke-dasharray="3,2"/>
<circle cx="380.0" cy="320.0" r="3.7" fill="#888" stroke="#222" stroke-width="1"/>
<text x="397.4" y="317.5" font-size="10" text-anchor="start" fill="#222" font-weight="normal">72T</text>
<rect x="362.3" y="398.4" width="35.3" height="35.3" fill="none" stroke="#555" stroke-width="1" stroke-dasharray="4,3"/>
<circle cx="380.0" cy="416.1" r="3.6" fill="#dd8" stroke="#886" stroke-width="1" stroke-dasharray="3,2"/>
<text x="401.1" y="418.6" font-size="10" text-anchor="start" fill="#222" font-weight="normal">NEMA23 + 18T</text>
<line x1="365.8" y1="320.0" x2="376.4" y2="416.1" stroke="#a52" stroke-width="1.5" stroke-dasharray="4,3"/>
<line x1="394.2" y1="320.0" x2="383.6" y2="416.1" stroke="#a52" stroke-width="1.5" stroke-dasharray="4,3"/>
<circle cx="397.2" cy="368.1" r="5.0" fill="none" stroke="#a52" stroke-width="1" stroke-dasharray="3,2"/>
<text x="404.6" y="370.5" font-size="10" text-anchor="start" fill="#222" font-weight="normal">your printed tensioner idler</text>
<rect x="202.7" y="315.0" width="9.9" height="9.9" fill="none" stroke="#262" stroke-width="1" stroke-dasharray="3,2"/>
<text x="216.3" y="311.3" font-size="10" text-anchor="start" fill="#222" font-weight="normal">home switch on base,</text>
<text x="216.3" y="320.0" font-size="10" text-anchor="start" fill="#222" font-weight="normal">tab on platter underside</text>
<rect x="373.8" y="103.0" width="12.4" height="12.4" fill="#9ab" stroke="#357" stroke-width="1" />
<rect x="349.0" y="106.7" width="62.0" height="5.0" fill="#bbb" stroke="#555" stroke-width="1" />
<text x="417.2" y="104.2" font-size="10" text-anchor="start" fill="#222" font-weight="normal">tower (2020) + head plate 100 wide</text>
<rect x="376.3" y="127.8" width="7.4" height="21.7" fill="#9ab" stroke="#357" stroke-width="1" />
<circle cx="380.0" cy="149.5" r="3.0" fill="#c33" stroke="#222" stroke-width="1"/>
<circle cx="380.0" cy="127.8" r="3.0" fill="none" stroke="#c33" stroke-width="1"/>
<text x="387.4" y="155.7" font-size="10" text-anchor="start" fill="#c33" font-weight="normal">tip IN  R275</text>
<text x="387.4" y="125.3" font-size="10" text-anchor="start" fill="#c33" font-weight="normal">tip OUT R310</text>
<text x="371.3" y="142.7" font-size="10" text-anchor="end" fill="#222" font-weight="bold">nail 0</text>
<line x1="380.0" y1="518.4" x2="566.0" y2="518.4" stroke="#c33" stroke-width="1" marker-start="url(#a)" marker-end="url(#a)"/>
<text x="473.0" y="514.4" font-size="10" text-anchor="middle" fill="#c33" font-weight="normal">R 300</text>
<line x1="615.6" y1="320.0" x2="615.6" y2="416.1" stroke="#c33" stroke-width="1" marker-start="url(#a)" marker-end="url(#a)"/>
<text x="620.6" y="372.1" font-size="10" text-anchor="start" fill="#c33" font-weight="normal">155</text>
<line x1="615.6" y1="320.0" x2="615.6" y2="109.2" stroke="#c33" stroke-width="1" marker-start="url(#a)" marker-end="url(#a)"/>
<text x="620.6" y="218.6" font-size="10" text-anchor="start" fill="#c33" font-weight="normal">340</text>
<line x1="646.6" y1="320.0" x2="646.6" y2="140.2" stroke="#c33" stroke-width="1" marker-start="url(#a)" marker-end="url(#a)"/>
<text x="651.6" y="234.1" font-size="10" text-anchor="start" fill="#c33" font-weight="normal">290</text>
<text x="12.0" y="622.0" font-size="10" text-anchor="start" fill="#444" font-weight="normal">Platter turns clockwise (viewed from above) for +X. Only the tower and head stand above the platter.</text>
</svg>